<svg width="34" height="34" viewBox="0 0 34 34" fill="none" xmlns="http://www.w3.org/2000/svg">
<rect x="1" y="33" width="32" height="32" rx="16" transform="rotate(-90 1 33)" stroke="white" stroke-width="2"/>
<path fill-rule="evenodd" clip-rule="evenodd" d="M5.94263 17.02C5.94264 16.4567 6.3993 16 6.96263 16L26.9973 16C27.5607 16 28.0173 16.4567 28.0173 17.02C28.0173 17.5833 27.5607 18.04 26.9973 18.04L6.96263 18.04C6.3993 18.04 5.94263 17.5833 5.94263 17.02Z" fill="white"/>
<path fill-rule="evenodd" clip-rule="evenodd" d="M17.7012 27.7586C17.3029 28.1569 16.6571 28.1569 16.2587 27.7586L6.24139 17.7413C5.84305 17.3429 5.84305 16.6971 6.24139 16.2988L16.2587 6.28142C16.6571 5.88309 17.3029 5.88309 17.7012 6.28142C18.0996 6.67976 18.0996 7.32558 17.7012 7.72392L8.40513 17.02L17.7012 26.3161C18.0996 26.7144 18.0996 27.3603 17.7012 27.7586Z" fill="white"/>
</svg>
