<svg width="34" height="34" viewBox="0 0 34 34" fill="none" xmlns="http://www.w3.org/2000/svg">
<rect x="1" y="33" width="32" height="32" rx="16" transform="rotate(-90 1 33)" stroke="white" stroke-width="2"/>
<path d="M22.6621 24.9269L17 19.2648L11.3379 24.9269C11.0376 25.2272 10.6302 25.396 10.2055 25.396C9.78076 25.396 9.37342 25.2272 9.07309 24.9269C8.77275 24.6266 8.60402 24.2192 8.60402 23.7945C8.60402 23.3697 8.77275 22.9624 9.07309 22.6621L14.7352 17L9.07309 11.3379C8.77275 11.0376 8.60402 10.6302 8.60402 10.2055C8.60402 9.78074 8.77275 9.3734 9.07309 9.07306C9.37342 8.77273 9.78076 8.604 10.2055 8.604C10.6302 8.604 11.0376 8.77273 11.3379 9.07306L17 14.7351L22.6621 9.07306C22.9624 8.77273 23.3698 8.604 23.7945 8.604C24.2192 8.604 24.6266 8.77273 24.9269 9.07306C25.2272 9.3734 25.396 9.78074 25.396 10.2055C25.396 10.6302 25.2272 11.0376 24.9269 11.3379L19.2648 17L24.9269 22.6621C25.2272 22.9624 25.396 23.3697 25.396 23.7945C25.396 24.2192 25.2272 24.6266 24.9269 24.9269C24.6266 25.2272 24.2192 25.396 23.7945 25.396C23.3698 25.396 22.9624 25.2272 22.6621 24.9269Z" fill="white"/>
</svg>
