<svg width="18" height="17" viewBox="0 0 18 17" fill="none" xmlns="http://www.w3.org/2000/svg">
<path d="M9.32619 0.532288H8.18437H7.81604V7.7182L9.58402 8.91585L11.2783 9.58121L11.1678 11.6438L9.98918 12.1096L10.1733 13.6399L12.8253 12.3425V8.4501L9.47352 6.75342L9.32619 0.532288Z" fill="#E1FAFE"/>
<path d="M4.39052 4.75735L7.37398 3.49316L7.63181 5.28964L6.41633 5.98827L6.52683 7.75148L7.63181 8.01763L9.54713 9.24855L9.39979 16.135H7.96331L7.63181 10.4129L4.39052 8.84933V4.75735Z" fill="#E1FAFE"/>
<path d="M13.0831 6.58712L9.62083 5.12333V3.02744L13.0831 4.62431V6.58712Z" fill="#E1FAFE"/>
<path fill-rule="evenodd" clip-rule="evenodd" d="M9.1788 2.37531L13.5251 4.37989V7.21476L9.1788 5.37723V2.37531ZM10.0628 3.67952V4.86938L12.6411 5.95945V4.86868L10.0628 3.67952Z" fill="url(#paint0_linear_49_223)"/>
<path d="M7.70554 14.1057L4.31691 12.6751V10.5793L7.70554 12.1429V14.1057Z" fill="#E1FAFE"/>
<path fill-rule="evenodd" clip-rule="evenodd" d="M3.87488 9.927L8.14749 11.8985V14.7329L3.87488 12.9292V9.927ZM4.75887 11.2315V12.4211L7.2635 13.4784V12.3872L4.75887 11.2315Z" fill="url(#paint1_linear_49_223)"/>
<path fill-rule="evenodd" clip-rule="evenodd" d="M7.6185 4.85117L7.93987 5.59497L6.71103 6.0281V7.50944L9.86212 8.99437L9.45321 9.70225L5.82704 7.99344V5.48261L7.6185 4.85117Z" fill="url(#paint2_linear_49_223)"/>
<path fill-rule="evenodd" clip-rule="evenodd" d="M8.02737 7.53391L7.60468 8.23514L10.689 9.75186V11.189L9.34278 11.4533L9.53057 12.2335L11.573 11.8325V9.27746L8.02737 7.53391Z" fill="url(#paint3_linear_49_223)"/>
<path fill-rule="evenodd" clip-rule="evenodd" d="M7.50442 2.73846L7.90658 3.44949L4.75887 4.90193V8.60736L8.14749 10.2042V17H7.2635V10.6882L3.87488 9.09136V4.41323L7.50442 2.73846Z" fill="url(#paint4_linear_49_223)"/>
<path fill-rule="evenodd" clip-rule="evenodd" d="M9.1788 0H10.0628V6.48032L13.5251 8.14373V12.6501L9.71599 14.459L9.30461 13.7523L12.6411 12.1679V8.62339L9.1788 6.95998V0Z" fill="url(#paint5_linear_49_223)"/>
<path fill-rule="evenodd" clip-rule="evenodd" d="M7.33714 0H8.22113V7.81028L10.1733 8.74179V17H9.28929V9.22298L7.33714 8.29148V0Z" fill="url(#paint6_linear_49_223)"/>
<path d="M0.707242 7.78479C0.503819 7.78479 0.338913 7.63584 0.338913 7.45211C0.338913 7.26837 0.503819 7.11943 0.707242 7.11943L2.40156 7.11943C2.60498 7.11943 2.76988 7.26837 2.76988 7.45211C2.76988 7.63584 2.60498 7.78479 2.40156 7.78479L0.707242 7.78479Z" fill="#24A9D4"/>
<path d="M14.9985 7.78482C14.795 7.78482 14.6301 7.63587 14.6301 7.45214C14.6301 7.26841 14.795 7.11946 14.9985 7.11946L16.6928 7.11946C16.8962 7.11946 17.0611 7.26841 17.0611 7.45214C17.0611 7.63587 16.8962 7.78482 16.6928 7.78482L14.9985 7.78482Z" fill="#24A9D4"/>
<path d="M0.707242 9.98044C0.503819 9.98044 0.338913 9.83149 0.338913 9.64776C0.338913 9.46402 0.503819 9.31508 0.707242 9.31508L2.40156 9.31508C2.60498 9.31508 2.76988 9.46402 2.76988 9.64776C2.76988 9.83149 2.60498 9.98044 2.40156 9.98044L0.707242 9.98044Z" fill="#24A9D4"/>
<path d="M14.9985 9.98044C14.795 9.98044 14.6301 9.83149 14.6301 9.64776C14.6301 9.46402 14.795 9.31508 14.9985 9.31508L16.6928 9.31508C16.8962 9.31508 17.0611 9.46402 17.0611 9.64776C17.0611 9.83149 16.8962 9.98044 16.6928 9.98044L14.9985 9.98044Z" fill="#24A9D4"/>
<path d="M6.59797 0.998545C6.54268 0.812177 6.33024 0.700805 6.12663 0.759157C4.47037 1.23382 3.0114 2.15631 1.94983 3.40588C0.888261 4.65545 0.279327 6.16707 0.200384 7.73491C0.190679 7.92766 0.364767 8.08417 0.578384 8.08417C0.792 8.08417 0.964162 7.92763 0.974837 7.73493C1.05317 6.32098 1.60566 4.95875 2.56355 3.83123C3.52143 2.7037 4.83525 1.86911 6.3271 1.43482C6.53041 1.37563 6.65326 1.18491 6.59797 0.998545Z" fill="#4D57A0"/>
<path d="M10.8021 0.998545C10.8574 0.812177 11.0698 0.700805 11.2734 0.759157C12.9297 1.23382 14.3886 2.15631 15.4502 3.40588C16.5118 4.65545 17.1207 6.16707 17.1997 7.73491C17.2094 7.92766 17.0353 8.08417 16.8217 8.08417C16.608 8.08417 16.4359 7.92763 16.4252 7.73493C16.3469 6.32098 15.7944 4.95875 14.8365 3.83123C13.8786 2.7037 12.5648 1.86911 11.0729 1.43482C10.8696 1.37563 10.7468 1.18491 10.8021 0.998545Z" fill="#4D57A0"/>
<path d="M10.8021 16.1013C10.8574 16.2876 11.0698 16.399 11.2734 16.3407C12.9297 15.866 14.3886 14.9435 15.4502 13.6939C16.5118 12.4444 17.1207 10.9328 17.1997 9.36491C17.2094 9.17216 17.0353 9.01565 16.8217 9.01565C16.608 9.01565 16.4359 9.17219 16.4252 9.36489C16.3469 10.7788 15.7944 12.1411 14.8365 13.2686C13.8786 14.3961 12.5648 15.2307 11.0729 15.665C10.8696 15.7242 10.7468 15.9149 10.8021 16.1013Z" fill="#4D57A0"/>
<path d="M6.59797 16.1013C6.54268 16.2877 6.33024 16.399 6.12663 16.3407C4.47037 15.866 3.0114 14.9435 1.94983 13.694C0.888261 12.4444 0.279327 10.9328 0.200384 9.36494C0.190679 9.1722 0.364767 9.01568 0.578384 9.01568C0.792 9.01568 0.964162 9.17222 0.974837 9.36492C1.05317 10.7789 1.60566 12.1411 2.56355 13.2686C3.52143 14.3962 4.83525 15.2307 6.3271 15.665C6.53041 15.7242 6.65326 15.9149 6.59797 16.1013Z" fill="#4D57A0"/>
<defs>
<linearGradient id="paint0_linear_49_223" x1="11.8308" y1="3.06068" x2="10.7265" y2="6.52471" gradientUnits="userSpaceOnUse">
<stop stop-color="#437AB1"/>
<stop offset="1" stop-color="#1CB4DC"/>
</linearGradient>
<linearGradient id="paint1_linear_49_223" x1="6.45318" y1="10.5792" x2="5.34891" y2="14.0433" gradientUnits="userSpaceOnUse">
<stop stop-color="#16ABDB"/>
<stop offset="1" stop-color="#49579C"/>
</linearGradient>
<linearGradient id="paint2_linear_49_223" x1="7.49974" y1="5.27154" x2="6.35315" y2="7.8391" gradientUnits="userSpaceOnUse">
<stop stop-color="#22ACD6"/>
<stop offset="1" stop-color="#4976B4"/>
</linearGradient>
<linearGradient id="paint3_linear_49_223" x1="9.90029" y1="9.03084" x2="11.0469" y2="11.5984" gradientUnits="userSpaceOnUse">
<stop stop-color="#22ACD6"/>
<stop offset="1" stop-color="#4976B4"/>
</linearGradient>
<linearGradient id="paint4_linear_49_223" x1="6.45318" y1="3.32685" x2="-0.781859" y2="9.18028" gradientUnits="userSpaceOnUse">
<stop stop-color="#22ACD6"/>
<stop offset="0.545" stop-color="#4B72B1"/>
<stop offset="1" stop-color="#4A4695"/>
</linearGradient>
<linearGradient id="paint5_linear_49_223" x1="9.80496" y1="3.21583e-07" x2="3.5127" y2="6.94022" gradientUnits="userSpaceOnUse">
<stop stop-color="#409AC7"/>
<stop offset="0.505" stop-color="#4C73AF"/>
<stop offset="1" stop-color="#494F9B"/>
</linearGradient>
<linearGradient id="paint6_linear_49_223" x1="7.99387" y1="0.0399217" x2="2.01964" y2="2.95026" gradientUnits="userSpaceOnUse">
<stop stop-color="#409AC7"/>
<stop offset="0.505" stop-color="#4C73AF"/>
<stop offset="1" stop-color="#4E4395"/>
</linearGradient>
</defs>
</svg>
