<svg width="11" height="17" viewBox="0 0 11 17" fill="none" xmlns="http://www.w3.org/2000/svg">
<path fill-rule="evenodd" clip-rule="evenodd" d="M5.60612 2.37531L10.2 4.37989V7.21476L5.60612 5.37723V2.37531ZM6.54047 3.67952V4.86938L9.26566 5.95945V4.86868L6.54047 3.67952Z" fill="url(#paint0_linear_49_253)"/>
<path fill-rule="evenodd" clip-rule="evenodd" d="M0 9.927L4.51603 11.8985V14.7329L0 12.9292V9.927ZM0.934351 11.2315V12.4211L3.58168 13.4784V12.3872L0.934351 11.2315Z" fill="url(#paint1_linear_49_253)"/>
<path fill-rule="evenodd" clip-rule="evenodd" d="M3.83632 2.73846L4.26139 3.44949L0.934351 4.90193V8.60736L4.51603 10.2042V17H3.58168V10.6882L0 9.09136V4.41323L3.83632 2.73846Z" fill="url(#paint2_linear_49_253)"/>
<path fill-rule="evenodd" clip-rule="evenodd" d="M5.60612 0H6.54047V6.48032L10.2 8.14373V12.6501L6.17391 14.459L5.73909 13.7523L9.26566 12.1679V8.62339L5.60612 6.95998V0Z" fill="url(#paint3_linear_49_253)"/>
<path fill-rule="evenodd" clip-rule="evenodd" d="M3.6595 0H4.59385V7.81028L6.65721 8.74179V17H5.72286V9.22298L3.6595 8.29148V0Z" fill="url(#paint4_linear_49_253)"/>
<defs>
<linearGradient id="paint0_linear_49_253" x1="8.40917" y1="3.06068" x2="7.35421" y2="6.55855" gradientUnits="userSpaceOnUse">
<stop stop-color="#437AB1"/>
<stop offset="1" stop-color="#1CB4DC"/>
</linearGradient>
<linearGradient id="paint1_linear_49_253" x1="2.72519" y1="10.5792" x2="1.67023" y2="14.0771" gradientUnits="userSpaceOnUse">
<stop stop-color="#16ABDB"/>
<stop offset="1" stop-color="#49579C"/>
</linearGradient>
<linearGradient id="paint2_linear_49_253" x1="2.72519" y1="3.32685" x2="-4.58322" y2="9.5765" gradientUnits="userSpaceOnUse">
<stop stop-color="#22ACD6"/>
<stop offset="0.545" stop-color="#4B72B1"/>
<stop offset="1" stop-color="#4A4695"/>
</linearGradient>
<linearGradient id="paint3_linear_49_253" x1="6.26795" y1="3.21583e-07" x2="0.0191271" y2="7.28497" gradientUnits="userSpaceOnUse">
<stop stop-color="#409AC7"/>
<stop offset="0.505" stop-color="#4C73AF"/>
<stop offset="1" stop-color="#494F9B"/>
</linearGradient>
<linearGradient id="paint4_linear_49_253" x1="4.35365" y1="0.0399217" x2="-1.82214" y2="3.21984" gradientUnits="userSpaceOnUse">
<stop stop-color="#409AC7"/>
<stop offset="0.505" stop-color="#4C73AF"/>
<stop offset="1" stop-color="#4E4395"/>
</linearGradient>
</defs>
</svg>
