<svg width="30" height="26" viewBox="0 0 30 26" fill="none" xmlns="http://www.w3.org/2000/svg">
<g clip-path="url(#clip0_17_116)">
<path d="M25.7143 6.24002H4.28573C2.51053 6.24002 1.07144 7.63689 1.07144 9.36002V21.84C1.07144 23.5631 2.51053 24.96 4.28573 24.96H25.7143C27.4895 24.96 28.9286 23.5631 28.9286 21.84V9.36002C28.9286 7.63689 27.4895 6.24002 25.7143 6.24002Z" stroke="black" stroke-width="2.07143" stroke-linejoin="round"/>
<path d="M25.4036 6.24V4.29C25.4034 3.81173 25.2945 3.3394 25.0846 2.90669C24.8748 2.47398 24.5691 2.09157 24.1894 1.78674C23.8098 1.4819 23.3655 1.26216 22.8882 1.1432C22.411 1.02423 21.9126 1.00897 21.4286 1.0985L3.79287 4.02025C3.02701 4.16192 2.3361 4.55857 1.83929 5.14179C1.34247 5.72501 1.07091 6.45823 1.07144 7.215V10.4" stroke="black" stroke-width="2.07143" stroke-linejoin="round"/>
<path d="M22.5 17.68C22.0762 17.68 21.6619 17.558 21.3095 17.3295C20.9571 17.1009 20.6825 16.7761 20.5203 16.396C20.3581 16.0159 20.3156 15.5977 20.3983 15.1942C20.481 14.7908 20.6851 14.4201 20.9848 14.1292C21.2845 13.8383 21.6663 13.6402 22.082 13.56C22.4976 13.4797 22.9285 13.5209 23.32 13.6784C23.7116 13.8358 24.0463 14.1024 24.2817 14.4444C24.5172 14.7865 24.6429 15.1886 24.6429 15.6C24.6429 16.1517 24.4171 16.6807 24.0152 17.0708C23.6134 17.4609 23.0683 17.68 22.5 17.68Z" fill="black"/>
</g>
<defs>
<clipPath id="clip0_17_116">
<rect width="30" height="26" fill="white"/>
</clipPath>
</defs>
</svg>
